<svg>
	<g transform="translate(0.000000,128.000000) scale(0.100000,-0.100000)" fill="#fff" stroke="none">
		<path d="M0 640 l0 -640 640 0 640 0 0 640 0 640 -640 0 -640 0 0 -640z m770 338 c0 -7 -40 -166 -89 -353 -79 -308 -90 -340 -109 -343 -12 -2 -22 2 -22 8 0 12 136 539 166 648 12 40 20 52 35 52 10 0 19 -6 19 -12z m-282 -144 c-3 -22 -22 -37 -125 -93 -68 -37 -125 -70 -129 -73 -3 -3 53 -37 125 -75 121 -63 131 -70 131 -96 l0 -29 -72 40 c-40 21 -117 63 -171 92 -66 35 -97 57 -95 68 3 12 306 188 331 191 5 1 7 -11 5 -25z m662 -544 c0 -19 -7 -20 -190 -20 -183 0 -190 1 -190 20 0 19 7 20 190 20 183 0 190 -1 190 -20z"/>
	</g>
</svg>
